<svg
  xmlns="http://www.w3.org/2000/svg"
  class="css-ze2te4 css-qd6ojx"
  viewBox="0 0 53.03030303030303 50.55594763713738"
>
  <g
    transform="translate(-0.9859736894806715, -2.0754297605717418) scale(0.5471775670022003)"
    class="css-1jm53oi"
    fill="#ff5722"
  >
    <path
      xmlns="http://www.w3.org/2000/svg"
      fill-rule="evenodd"
      clip-rule="evenodd"
      d="M21.326,78.783c0.291,0.051,0.594,0.066,0.871,0.158  c2.272,0.746,2.977,4.131,1.448,5.687c-1.586,1.612-4.13,2.25-6.358,1.338c-2.797-1.144-4.439-4.597-3.752-7.761  c0.488-2.244,1.837-3.832,3.646-5.108c1.126-0.795,2.354-1.347,3.745-1.466c2.562-0.219,4.665,0.826,6.348,2.611  c3.769,4,5.467,8.769,4.762,14.264c-0.354,2.768-1.692,5.002-4.197,6.407c-1.257,0.705-2.622,1.083-4.054,1.196  c-2.283,0.183-4.56,0.07-6.749-0.617c-4.473-1.407-7.809-4.283-10.268-8.226c-2.205-3.536-3.417-7.437-4.151-11.5  c-0.941-5.209-0.978-10.46-0.561-15.718c0.301-3.809,0.898-7.578,1.786-11.297c1.227-5.143,2.859-10.134,5.529-14.739  c2.911-5.022,6.22-9.736,10.523-13.685c2.893-2.653,6.101-4.787,9.883-5.974c1.676-0.526,3.36-0.811,5.123-0.483  c2.692,0.501,5.019,1.769,7.153,3.407c4.874,3.739,8.612,8.447,11.616,13.769c0.085,0.152,0.175,0.301,0.262,0.452  c0.059-0.006,0.115-0.013,0.174-0.02c0.942-4.143,1.885-8.285,2.834-12.457c0.11,0.146,0.219,0.279,0.315,0.42  c1.062,1.536,1.753,3.245,2.276,5.02c0.731,2.479,1.402,4.977,2.128,7.458c0.219,0.747,0.535,1.465,0.813,2.215  c0.549-0.376,0.798-0.818,0.968-1.7c0.3-1.553,0.21-3.114,0.062-4.672c-0.339-3.557-1.062-7.044-1.953-10.498  c-0.938-3.637-2.025-7.226-3.598-10.649c-0.23-0.501-0.488-0.992-0.771-1.465c-0.272-0.455-0.592-0.88-0.917-1.357  c7.676,3.589,14.391,8.46,20.393,14.339c5.345,5.234,9.895,11.088,13.599,17.592c2.522,4.429,4.565,9.067,6.05,13.946  c1.137,3.738,1.896,7.552,2.253,11.443c0.085,0.922,0.108,1.85,0.161,2.806c-0.236,0.01-0.406,0.028-0.575,0.023  c-2.257-0.063-4.517-0.072-6.769-0.209c-3.715-0.227-7.357-0.882-10.863-2.171c-5.783-2.126-10.068-5.832-12.377-11.666  c-1.331-3.365-1.146-6.635,0.598-9.755c1.729-3.092,4.287-4.997,8.014-4.805c1.76,0.09,3.319,0.687,4.494,2.101  c1.25,1.505,2.027,3.217,2.382,5.133c0.296,1.6,0.282,3.186-0.403,4.688c-0.767,1.676-2.062,2.741-3.945,2.812  c-2.513,0.094-4.948-2.329-5.033-4.891c-0.047-1.421,0.597-2.416,1.907-2.954c1.151-0.473,2.302-0.584,3.478,0.062  c-0.447-1.246-1.809-2.044-3.152-1.799c-0.638,0.117-1.255,0.393-1.856,0.653c-2.762,1.194-3.853,3.649-2.833,6.485  c0.938,2.607,2.723,4.493,5.219,5.659c2.544,1.188,5.23,0.783,7.104-1.102c2.367-2.381,3.569-5.309,3.539-8.659  c-0.036-3.881-1.724-6.999-4.784-9.346c-4.035-3.097-9.411-3.137-13.371-0.128c-2.475,1.88-3.622,4.507-4.068,7.493  c-0.426,2.847-0.158,5.669,0.42,8.467c0.247,1.199,0.572,2.382,0.867,3.597c-0.073-0.043-0.14-0.075-0.199-0.116  c-2.65-1.814-5.551-3.044-8.688-3.716c-3.021-0.647-6.043-0.735-9.041,0.115c-0.896,0.253-1.756,0.631-2.632,0.951  c-0.009,0.062-0.018,0.122-0.025,0.183c0.114,0.081,0.237,0.153,0.343,0.246c1.715,1.492,3.387,3.036,5.146,4.473  c3.399,2.772,7.059,5.152,11.028,7.041c0.265,0.125,0.444,0.113,0.68-0.062c0.912-0.678,1.835-1.34,2.765-1.995  c0.861-0.607,1.82-0.829,2.869-0.694c1.105,0.143,2.024,0.687,2.889,1.334c1.257,0.943,2.496,1.909,3.742,2.866  c-0.084,0-0.203,0-0.32,0c-4.439,0.021-8.878,0.019-13.316,0.076c-1.064,0.015-2.062-0.16-3.049-0.516  c-0.904-0.326-1.816-0.633-2.721-0.96c-6.664-2.413-12.763-5.82-18.226-10.35c-0.603-0.5-0.597-0.495-0.331-1.221  c1.687-4.619,3.039-9.319,3.497-14.242c0.284-3.043,0.172-6.054-0.637-9.015c-0.176-0.644-0.425-1.267-0.654-1.943  c-8.386,6.288-15.084,13.71-17.822,24.069c3.917-5.347,8.187-10.353,13.688-14.318c-0.738,9.214-2.706,17.872-9.126,25.027  c3.455-0.203,6.767-1.048,10.15-0.662c1.127,3.713,3.004,7.112,3.887,10.915c-0.526-0.257-1.081-0.492-1.477-0.888  c-1.069-1.071-2.068-2.212-3.101-3.319c-0.24-0.257-0.502-0.493-0.754-0.739c-0.036,2.396,0.826,4.602,1.003,6.945  c-0.645-0.526-1.266-1.06-1.818-1.656c-1.741-1.878-3.06-4.05-4.258-6.297c-0.203-0.381-0.426-0.535-0.869-0.533  c-3.681,0.019-7.361,0.01-11.042,0.009c-0.17,0-0.341,0-0.541,0c-1.125-7.813-1.885-15.611-1.998-23.471  c-1.104,1.79-1.94,3.676-2.664,5.614c-1.655,4.434-2.78,9.004-3.478,13.681c-0.606,4.069-0.877,8.154-0.605,12.271  c0.179,2.705,0.621,5.353,1.459,7.933c1.243,3.827,3.576,6.777,7.063,8.797c1.384,0.802,2.866,1.206,4.448,0.771  c1.284-0.354,2.469-0.954,3.516-1.8c1.835-1.48,2.691-3.378,2.433-5.74c-0.227-2.069-1.167-3.812-2.534-5.34  c-1.028-1.148-2.228-2.058-3.747-2.451c-1.463-0.379-2.725-0.024-3.704,1.153c-0.863,1.04-1.248,2.28-1.441,3.596  c-0.146,0.988-0.05,1.933,0.556,2.753c1.032,1.398,3.232,1.672,4.9,0.771c1.45-0.783,1.253-3.113-0.04-3.595  c-0.272-0.102-0.475-0.392-0.709-0.595C21.245,78.903,21.285,78.844,21.326,78.783z M76.605,45.74  c-0.004,0.996,0.803,1.823,1.781,1.825c0.953,0.002,1.819-0.861,1.818-1.812c0-0.974-0.869-1.833-1.854-1.83  C77.418,43.927,76.609,44.768,76.605,45.74z"
    ></path>
    <path
      xmlns="http://www.w3.org/2000/svg"
      fill-rule="evenodd"
      clip-rule="evenodd"
      d="M96.158,34.11c-1.877-1.571-4.112-1.804-6.533-1.848  c2.785,3.466,4.492,7.392,5.959,11.449c1.141-1.657,2.373-5.197,1.938-6.828c-0.986,0.43-1.758,0.224-2.186-0.583  C94.9,35.474,95.168,34.735,96.158,34.11z"
    ></path>
    <path
      xmlns="http://www.w3.org/2000/svg"
      fill-rule="evenodd"
      clip-rule="evenodd"
      fill="none"
      d="M78.352,43.924c-0.934,0.003-1.742,0.844-1.746,1.816  c-0.004,0.996,0.803,1.823,1.781,1.825c0.953,0.002,1.819-0.861,1.818-1.812C80.205,44.779,79.336,43.92,78.352,43.924z"
    ></path>
  </g>
</svg>
