<svg xmlns="http://www.w3.org/2000/svg" viewBox="0 0 389.97 70.556" class="css-8aabad" width="1000" height="1000"><g fill="#fff" fill-rule="evenodd" clip-rule="evenodd"><path xmlns="http://www.w3.org/2000/svg" d="M30.683 61.033c.16.028.325.037.477.087 1.243.408 1.629 2.26.792 3.112-.868.882-2.26 1.23-3.479.732-1.53-.626-2.429-2.516-2.053-4.247.267-1.228 1.005-2.097 1.995-2.795.616-.435 1.288-.737 2.05-.802 1.401-.12 2.552.452 3.473 1.429 2.062 2.188 2.991 4.798 2.605 7.805-.193 1.514-.925 2.737-2.296 3.505a5.34 5.34 0 0 1-2.218.655c-1.25.1-2.495.038-3.693-.338-2.448-.77-4.273-2.343-5.619-4.5-1.206-1.936-1.87-4.07-2.271-6.293-.515-2.85-.535-5.724-.307-8.6a40 40 0 0 1 .977-6.182c.672-2.815 1.565-5.546 3.026-8.065 1.592-2.748 3.403-5.328 5.758-7.488 1.583-1.452 3.338-2.62 5.407-3.27.917-.287 1.839-.443 2.804-.264 1.473.275 2.746.968 3.914 1.865 2.667 2.046 4.712 4.622 6.356 7.534q.07.123.143.247l.095-.01 1.55-6.817c.061.08.12.153.173.23.581.84.96 1.775 1.246 2.747.4 1.356.767 2.723 1.164 4.08.12.41.293.802.445 1.212.3-.205.437-.447.53-.93.164-.85.114-1.704.033-2.556-.185-1.947-.58-3.855-1.068-5.744-.513-1.99-1.108-3.954-1.969-5.827q-.19-.413-.422-.802c-.149-.249-.324-.482-.502-.743 4.2 1.964 7.875 4.63 11.16 7.846a43.7 43.7 0 0 1 7.44 9.626 37.4 37.4 0 0 1 3.31 7.631 31.2 31.2 0 0 1 1.233 6.262c.047.504.06 1.012.089 1.535-.13.006-.223.016-.315.013-1.235-.035-2.472-.04-3.704-.115-2.033-.124-4.026-.482-5.944-1.188-3.164-1.163-5.509-3.19-6.772-6.383-.729-1.841-.628-3.63.327-5.338.946-1.692 2.346-2.734 4.385-2.629.963.05 1.816.376 2.459 1.15a6.03 6.03 0 0 1 1.303 2.808c.162.876.155 1.744-.22 2.566-.42.917-1.129 1.5-2.159 1.538-1.375.052-2.707-1.274-2.754-2.676-.026-.777.327-1.322 1.044-1.616.63-.26 1.26-.32 1.903.034a1.56 1.56 0 0 0-1.725-.985c-.35.064-.687.215-1.016.358-1.51.653-2.108 1.996-1.55 3.548.514 1.426 1.49 2.458 2.856 3.096 1.392.65 2.862.429 3.887-.603 1.295-1.302 1.953-2.904 1.937-4.738-.02-2.123-.944-3.83-2.618-5.113-2.208-1.695-5.15-1.717-7.316-.07-1.355 1.028-1.982 2.466-2.226 4.1-.233 1.557-.087 3.101.23 4.632.135.657.313 1.304.474 1.969-.04-.024-.077-.041-.109-.064a13.2 13.2 0 0 0-4.754-2.033c-1.653-.354-3.306-.402-4.947.063-.49.138-.96.345-1.44.52l-.014.1c.063.045.13.084.188.135.938.816 1.853 1.661 2.816 2.447 1.86 1.517 3.862 2.82 6.034 3.853.145.069.243.062.372-.034a73 73 0 0 1 1.513-1.091 2.15 2.15 0 0 1 1.57-.38c.605.078 1.107.376 1.58.73.688.516 1.366 1.044 2.048 1.568H60.2c-2.429.012-4.858.01-7.286.042a4.7 4.7 0 0 1-1.668-.283c-.495-.178-.994-.346-1.49-.525-3.646-1.32-6.983-3.185-9.972-5.663-.33-.274-.327-.271-.181-.668.923-2.528 1.663-5.1 1.913-7.793.156-1.665.094-3.313-.348-4.933-.097-.353-.233-.694-.358-1.063-4.589 3.44-8.254 7.501-9.752 13.17 2.143-2.926 4.48-5.665 7.49-7.835-.404 5.042-1.481 9.78-4.994 13.694 1.89-.11 3.703-.573 5.554-.362.617 2.032 1.644 3.892 2.127 5.973-.288-.141-.592-.27-.808-.486-.585-.586-1.132-1.21-1.697-1.816-.131-.14-.275-.27-.413-.405-.02 1.311.452 2.518.55 3.8a10 10 0 0 1-.996-.906c-.952-1.027-1.674-2.216-2.33-3.445-.11-.209-.233-.293-.475-.292-2.014.01-4.028.006-6.042.005h-.296c-.616-4.275-1.031-8.542-1.093-12.843-.604.98-1.062 2.012-1.458 3.072-.906 2.426-1.521 4.927-1.903 7.486-.332 2.226-.48 4.462-.331 6.714.098 1.48.34 2.93.798 4.341.68 2.094 1.957 3.708 3.865 4.814.757.439 1.568.66 2.434.422a5.25 5.25 0 0 0 1.924-.985c1.004-.81 1.472-1.849 1.331-3.141-.124-1.132-.639-2.086-1.387-2.922-.562-.628-1.219-1.126-2.05-1.341-.8-.208-1.49-.013-2.027.63-.472.57-.682 1.248-.788 1.968-.08.541-.027 1.058.304 1.507.565.765 1.769.915 2.681.422.794-.429.686-1.704-.022-1.967-.148-.056-.26-.215-.388-.326zm30.248-18.08a.99.99 0 0 0 .974.999c.522 0 .996-.472.995-.992 0-.533-.475-1.003-1.014-1.001-.51.002-.953.462-.955.994m10.699-6.364c-1.027-.86-2.25-.987-3.575-1.01 1.524 1.896 2.458 4.044 3.26 6.264.625-.907 1.3-2.844 1.061-3.736-.54.235-.962.122-1.196-.32-.239-.451-.092-.856.45-1.198"/><path xmlns="http://www.w3.org/2000/svg" fill="none" d="M61.887 41.96c-.511.001-.954.461-.956.993a.99.99 0 0 0 .975.999c.521 0 .995-.472.995-.992 0-.533-.476-1.003-1.014-1"/></g><path d="M109.839 58.14q-.723.987-2.49 1.767t-3.858.779q-3.23 0-5.606-1.445t-3.63-3.934T93 49.777t1.255-5.53 3.63-3.934 5.606-1.445q2.167 0 3.82.741t2.528 1.882v-9.997h5.625V60.23h-5.625zm-1.33-12.64q-1.56-1.653-4.182-1.653-2.66 0-4.2 1.654t-1.54 4.276q0 2.547 1.578 4.219t4.162 1.672q2.66 0 4.2-1.577t1.54-4.314q0-2.623-1.559-4.276m17.922 14.234q-2.604-1.026-4.466-3.477t-1.863-6.405 1.882-6.386 4.504-3.459 4.98-1.026q2.736 0 5.206 1.217t4.048 3.572 1.654 5.588q0 .988-.038 1.71t-.076.913h-16.496q.456 2.204 2.28 3.002t3.421.798q2.053 0 3.269-.74t2.09-1.692l4.41 2.547q-3.573 4.865-9.769 4.865-2.432 0-5.036-1.027m1.16-14.614q-1.483 1.16-1.673 2.831h10.452q-.114-.988-.76-1.9t-1.73-1.501-2.45-.59q-2.357 0-3.84 1.16m24.098 14.177q-2.622-1.463-4.162-3.972t-1.54-5.473 1.54-5.454 4.143-3.953 5.683-1.464q3.307 0 5.986 1.578t4.276 4.504l-5.131 2.014q-.912-1.558-2.243-2.337t-2.888-.78q-2.471 0-4.086 1.673t-1.616 4.219 1.635 4.219 4.105 1.672q3.42 0 5.283-3.04l4.827 1.9q-3.003 6.158-10.11 6.158-3.08 0-5.702-1.464m25.334.437q-2.604-1.026-4.466-3.477t-1.863-6.405 1.882-6.386 4.504-3.459 4.979-1.026q2.737 0 5.207 1.217t4.048 3.572 1.654 5.588q0 .988-.038 1.71t-.076.913h-16.497q.457 2.204 2.281 3.002t3.42.798q2.053 0 3.27-.74t2.09-1.692l4.41 2.547q-3.574 4.865-9.77 4.865-2.432 0-5.035-1.027m1.159-14.614q-1.482 1.16-1.672 2.831h10.452q-.114-.988-.76-1.9t-1.73-1.501-2.451-.59q-2.357 0-3.84 1.16m36.89-3.858q1.957 2.318 1.957 6.613V60.23h-5.816V47.876q0-4.219-4.029-4.219-1.558 0-2.812 1.236t-1.179 4.276v11.06h-5.663V39.325h5.663v1.863q1.027-1.026 2.585-1.635t3.003-.608q4.333 0 6.29 2.319m14.539 11.517q0 1.33.456 2.223t2.129.894q.76 0 1.444-.077v4.79q-1.368.152-2.547.152-2.432 0-3.934-.4t-2.337-1.539-.837-3.269V43.961h-2.546v-4.979h2.546v-5.587h5.626v5.587h4.181v4.98h-4.181zm18.51-8.001q-1.634.399-3.002 1.881t-1.369 4.333v9.237h-5.663V39.324h5.663V42.1q1.407-1.862 3.44-2.528t3.706-.627v5.55q-1.14-.114-2.774.285m21.627 13.36q-.722.988-2.49 1.768t-3.858.779q-3.23 0-5.606-1.445t-3.63-3.934-1.254-5.53 1.254-5.53 3.63-3.934 5.606-1.445q2.167 0 3.82.741t2.528 1.882v-2.167h5.625V60.23h-5.625zm-1.33-12.638q-1.559-1.654-4.181-1.654-2.661 0-4.2 1.654t-1.54 4.276q0 2.547 1.578 4.219t4.162 1.672q2.66 0 4.2-1.577t1.54-4.314q0-2.623-1.56-4.276m12.62-14.007h5.701V60.23h-5.701zm16.458 4.733q-.912.893-2.204.893-1.33 0-2.262-.893t-.931-2.186q0-1.254.93-2.148t2.263-.893q1.292 0 2.204.893t.912 2.148q0 1.292-.912 2.186m-5.055 3.135h5.701V60.23h-5.701zm10.072 4.942V39.4h19.88l-11.404 15.888h10.225v4.942h-20.26l11.366-15.926zm38.618 13.835q-.722.988-2.49 1.768t-3.858.779q-3.23 0-5.606-1.445t-3.63-3.934-1.254-5.53 1.254-5.53 3.63-3.934 5.606-1.445q2.167 0 3.82.741t2.528 1.882v-2.167h5.626V60.23h-5.626zm-1.33-12.638q-1.559-1.654-4.181-1.654-2.661 0-4.2 1.654t-1.54 4.276q0 2.547 1.578 4.219t4.162 1.672q2.66 0 4.2-1.577t1.54-4.314q0-2.623-1.56-4.276m22.54-.722q-1.634.399-3.002 1.881t-1.369 4.333v9.237h-5.663V39.324h5.663V42.1q1.407-1.862 3.44-2.528t3.706-.627v5.55q-1.14-.114-2.775.285m22.008 13.36q-.722.988-2.49 1.768t-3.858.779q-3.23 0-5.606-1.445t-3.63-3.934-1.254-5.53 1.254-5.53 3.63-3.934 5.606-1.445q2.167 0 3.82.741t2.528 1.882v-9.997h5.625V60.23h-5.625zm-1.33-12.638q-1.559-1.654-4.181-1.654-2.661 0-4.2 1.654t-1.54 4.276q0 2.547 1.578 4.219t4.162 1.672q2.66 0 4.2-1.577t1.54-4.314q0-2.623-1.56-4.276" fill="#fff"/></svg>